{"title":"Pocket Maar (1974) DVDRip x264 AAC ESub","uid":8369023,"size":880700695,"categoryP":"video","categoryS":"movies","magnet":"?xt=urn:btih:a1d9c3683742a852990feeee80ea3f8f5d66dbbd&amp;dn=Pocket+Maar+%281974%29+DVDRip+x264+AAC+ESub+&amp;tr=udp%3A%2F%2Ftracker.openbittorrent.com%3A80&amp;tr=udp%3A%2F%2Fopen.demonii.com%3A1337&amp;tr=udp%3A%2F%2Ftracker.coppersurfer.tk%3A6969&amp;tr=udp%3A%2F%2Fexodus.desync.com%3A6969","seeders":0,"leechers":1,"uploader":"Bclassics","files":2,"time":1365814428,"description":"\n-: Cover :- \n\n    &lt;a href=&quot;\thttp://desibbrg.org/images/28392368971670561683.jpg&quot; rel=&quot;nofollow&quot; target=&quot;_NEW&quot;&gt;\thttp://desibbrg.org/images/28392368971670561683.jpg&lt;/a&gt;\n\n\n\n-: Screens :-\n\n    &lt;a href=&quot;\thttp://desibbrg.org/images/81965192257334675818.jpg&quot; rel=&quot;nofollow&quot; target=&quot;_NEW&quot;&gt;\thttp://desibbrg.org/images/81965192257334675818.jpg&lt;/a&gt;\n    &lt;a href=&quot;\thttp://desibbrg.org/images/96133137289512077216.jpg&quot; rel=&quot;nofollow&quot; target=&quot;_NEW&quot;&gt;\thttp://desibbrg.org/images/96133137289512077216.jpg&lt;/a&gt;\n    &lt;a href=&quot;\thttp://desibbrg.org/images/38108418160045917985.jpg&quot; rel=&quot;nofollow&quot; target=&quot;_NEW&quot;&gt;\thttp://desibbrg.org/images/38108418160045917985.jpg&lt;/a&gt;\n    &lt;a href=&quot;\thttp://desibbrg.org/images/12122750286201649744.jpg&quot; rel=&quot;nofollow&quot; target=&quot;_NEW&quot;&gt;\thttp://desibbrg.org/images/12122750286201649744.jpg&lt;/a&gt;\n    &lt;a href=&quot;\thttp://desibbrg.org/images/65239758914452568880.jpg&quot; rel=&quot;nofollow&quot; target=&quot;_NEW&quot;&gt;\thttp://desibbrg.org/images/65239758914452568880.jpg&lt;/a&gt;\n    &lt;a href=&quot;\thttp://desibbrg.org/images/71299504932498108343.jpg&quot; rel=&quot;nofollow&quot; target=&quot;_NEW&quot;&gt;\thttp://desibbrg.org/images/71299504932498108343.jpg&lt;/a&gt;\n    &lt;a href=&quot;\thttp://desibbrg.org/images/18548088843532416519.jpg&quot; rel=&quot;nofollow&quot; target=&quot;_NEW&quot;&gt;\thttp://desibbrg.org/images/18548088843532416519.jpg&lt;/a&gt;\n    &lt;a href=&quot;\thttp://desibbrg.org/images/33899972028139987619.jpg&quot; rel=&quot;nofollow&quot; target=&quot;_NEW&quot;&gt;\thttp://desibbrg.org/images/33899972028139987619.jpg&lt;/a&gt;\n    &lt;a href=&quot;\thttp://desibbrg.org/images/40052827687805635616.jpg&quot; rel=&quot;nofollow&quot; target=&quot;_NEW&quot;&gt;\thttp://desibbrg.org/images/40052827687805635616.jpg&lt;/a&gt;\n  \n\n\n\n\n-: Info :-\n\nGeneral\n\nFormat                           : MP4 Video\nFile size                        : 840 MiB\nDuration                         : 2h 13mn\nOverall bit rate                 : 881 Kbps\n\n\nVideo\nFormat                           : AVC\nFormat/Info                      : Advanced Video Codec\nFormat profile                   : &lt;a class=&quot;__cf_email__&quot; href=&quot;/cdn-cgi/l/email-protection&quot; data-cfemail=&quot;e9a4888087a9a5dac7d9&quot;&gt;[email&amp;#160;protected]&lt;/a&gt;&lt;script cf-hash='f9e31' type=&quot;text/javascript&quot;&gt;\n/* &lt;![CDATA[ */!function(){try{var t=&quot;currentScript&quot;in document?document.currentScript:function(){for(var t=document.getElementsByTagName(&quot;script&quot;),e=t.length;e--;)if(t[e].getAttribute(&quot;cf-hash&quot;))return t[e]}();if(t&amp;&amp;t.previousSibling){var e,r,n,i,c=t.previousSibling,a=c.getAttribute(&quot;data-cfemail&quot;);if(a){for(e=&quot;&quot;,r=parseInt(a.substr(0,2),16),n=2;a.length-n;n+=2)i=parseInt(a.substr(n,2),16)^r,e+=String.fromCharCode(i);e=document.createTextNode(e),c.parentNode.replaceChild(e,c)}}}catch(u){}}();/* ]]&gt; */&lt;/script&gt;\nFormat settings, CABAC           : Yes\nFormat settings, ReFrames        : 3 frames\n\nDuration                         : 2h 13mn\nBit rate                         : 743 Kbps\nWidth                            : 640 pixels\nHeight                           : 480 pixels\nDisplay aspect ratio             : 4:3\nFrame rate mode                  : Constant\nFrame rate                       : 29.970 fps\nColor space                      : YUV\nChroma subsampling               : 4:2:0\nBit depth                        : 8 bits\nScan type                        : Progressive\nBits/(Pixel*Frame)               : 0.081\nStream size                      : 709 MiB (84%)\n\nAudio\nFormat                           : AAC\nFormat/Info                      : Advanced Audio Codec\nFormat version                   : Version 4\nFormat profile                   : LC\nFormat settings, SBR             : No\nDuration                         : 2h 13mn\nBit rate                         : 129 Kbps\nChannel(s)                       : 2 channels\nChannel positions                : Front: L R\nSampling rate                    : 44.1 KHz\nBit depth                        : 16 bits\nStream size                      : 123 MiB (15%)\n\n\n\n &lt;a href=&quot;\nhttp://www.imdb.com/title/tt0358029/&quot; rel=&quot;nofollow&quot; target=&quot;_NEW&quot;&gt;\nhttp://www.imdb.com/title/tt0358029/&lt;/a&gt;\n\n\n\nDirected by\nRamesh Lakhanpal\t \t(as Ramesh Lakhanpaul)\n \nWriting credits\n(in alphabetical order)\nKaushal Bharati\t \tscreenplay (as Kaushal Bharti)\nShashi Bhushan\t \tadditional screenplay (as Shashi Bhooshan)\nVrajendra Gaur\t \tdialogue\nMushtaq Jalili\t \tstory\n\nCast (in credits order)\n\n\tDharmendra\t... \tShankar\n\tSaira Banu\t... \tAsha Rai\n\tPrem Chopra\t... \tMadan Malhotra\n\tMehmood\t... \tSunder (as Mahmood)\n\tNasir Hussain\t... \tMr. Rai (as Nazir Hussain)\n\tShubha Khote\t... \tSheela Verma (as Shobha Khote)\n\tAzra\t... \tGanga\n\tAsit Sen\t... \tDr. Sen\n\tPraveen Paul\t... \tMrs. Verma (as Praveen Paul)\n\tKeshav Rana\t... \tPran Lal (as Keshov Rana)\n\tRadheshyam\t\t(as Radheyshyam)\n\tBaldev Mehta\t\t\n\tMasood\t\t(as Massod)\n\tKhan\t\t(as Khan Sahib)\n\tDevi Chand\t\t(as Devichand)\n\tKrishna\t\t(as Kishan)\n\tKutubuddin\t\t(as Qutbudhin)\n\tGulloo\t\t(as Gullu)\n\tBabu\t\t\n\tPrem Mannade\t\t\n\tAbdul\t\t\n\tShanti Swaroop\t\t\n\n\nProduced by\nRamesh Lakhanpal\t.... \tproducer (as Ramesh Lakhanpaul)\nJoginder Singh Luthra\t.... \tproducer\n \nOriginal Music by\nLaxmikant Shantaram Kudalkar\t \t(as Laxmikant)\nPyarelal Ramprasad Sharma\t \t(as Pyarelal)\n\n\nAfter the passing away of son and daughter-in-law, prominent businessman, Rai, undertakes to look after his grand-daughter, Asha, with a lot of love and affection. When she grows old enough to be a ravishing beauty, he is anxious to get her married to the right man before he passes away. He finds out that Asha has a boyfriend by the name of Madan Malhotra, and although he has never met him, he disapproves of him, but finally gives in to Asha's wishes. When Madan returns from abroad, Rai is pleasantly surprised at Asha's choice and welcomes Madan with open arms. Shortly thereafter on his birthday, Rai formally announces their engagement. When Rai does not know is that Madan is not who he claims to be but is, in fact, a thief and pick-pocket by the name of Shankar, who has been hired by Asha to impersonate the real Madan. Watch what happens when the real Madan returns and attempts to assert his love for Asha.\n","torrent":{"xt":"urn:btih:a1d9c3683742a852990feeee80ea3f8f5d66dbbd","amp;dn":"Pocket+Maar+%281974%29+DVDRip+x264+AAC+ESub+","amp;tr":["udp%3A%2F%2Ftracker.openbittorrent.com%3A80","udp%3A%2F%2Fopen.demonii.com%3A1337","udp%3A%2F%2Ftracker.coppersurfer.tk%3A6969","udp%3A%2F%2Fexodus.desync.com%3A6969"],"infoHash":"a1d9c3683742a852990feeee80ea3f8f5d66dbbd","infoHashBuffer":{"type":"Buffer","data":[161,217,195,104,55,66,168,82,153,15,238,238,128,234,63,143,93,102,219,189]},"announce":[],"urlList":[]}}